<mxfile host="app.diagrams.net" agent="Mozilla/5.0 (Windows NT 10.0; Win64; x64) AppleWebKit/537.36 (KHTML, like Gecko) Chrome/130.0.0.0 Safari/537.36 Edg/130.0.0.0" version="24.8.3">
  <diagram name="Page-1" id="ROZquSnpiP_c0AMkIccm">
    <mxGraphModel dx="1282" dy="576" grid="1" gridSize="10" guides="1" tooltips="1" connect="1" arrows="1" fold="1" page="1" pageScale="1" pageWidth="850" pageHeight="1100" math="0" shadow="0">
      <root>
        <mxCell id="0" />
        <mxCell id="1" parent="0" />
        <mxCell id="MY-y1UC297sCXsPQn4J3-1" value="resumerun_save.f90" style="rounded=1;whiteSpace=wrap;html=1;fillColor=#FFCCCC;" parent="1" vertex="1">
          <mxGeometry x="390" width="157" height="40" as="geometry" />
        </mxCell>
        <mxCell id="MY-y1UC297sCXsPQn4J3-2" value="&lt;div&gt;&lt;font style=&quot;font-size: 9px;&quot;&gt;Dependencies:&lt;/font&gt;&lt;/div&gt;&lt;div&gt;&lt;div&gt;&lt;font style=&quot;font-size: 9px;&quot;&gt;Modules\climate_forcing_module\climate_forcing_module.f90: climate_module_resume_save&lt;/font&gt;&lt;/div&gt;&lt;div&gt;&lt;font style=&quot;font-size: 9px;&quot;&gt;LSS_Model\CLASS\3.6\sa_mesh_process\RUNCLASS36_config.f90: save_init_prog_variables_class&lt;/font&gt;&lt;/div&gt;&lt;div&gt;&lt;font style=&quot;font-size: 9px;&quot;&gt;LSS_Model\CLASS\3.6\sa_mesh_process\save_init_prog_variables_class.f90: save_init_prog_variables_class&lt;/font&gt;&lt;/div&gt;&lt;div&gt;&lt;font style=&quot;font-size: 9px;&quot;&gt;LSS_Model\SVS\svs1\src\runsvs_mesh.F90: runsvs_mesh_save_states_seq&lt;/font&gt;&lt;/div&gt;&lt;div&gt;&lt;font style=&quot;font-size: 9px;&quot;&gt;Routing_Model\baseflow_module\baseflow_module.f90: bflm_resume_save&lt;/font&gt;&lt;/div&gt;&lt;div&gt;&lt;font style=&quot;font-size: 9px;&quot;&gt;Routing_Model\WatRoute_old\WF_ROUTE_config.f90: WF_ROUTE_resume_save&lt;/font&gt;&lt;/div&gt;&lt;div&gt;&lt;font style=&quot;font-size: 9px;&quot;&gt;Routing_Model\RPN_watroute\sa_mesh_process\rte_module.f90: run_rte_resume_save&lt;/font&gt;&lt;/div&gt;&lt;div&gt;&lt;font style=&quot;font-size: 9px;&quot;&gt;Driver\MESH_Driver\save_basin_output.f90: run_save_basin_output_resume_save&lt;/font&gt;&lt;/div&gt;&lt;div&gt;&lt;font style=&quot;font-size: 9px;&quot;&gt;Modules\simulation_statistics\SIMSTATS.F90: stats_state_save&lt;/font&gt;&lt;/div&gt;&lt;div&gt;&lt;font style=&quot;font-size: 9px;&quot;&gt;LSS_Model\CLASS\3.6\sa_mesh_process\RUNCLASS36_config.f90: save_init_prog_variables_class&lt;/font&gt;&lt;/div&gt;&lt;div&gt;&lt;font style=&quot;font-size: 9px;&quot;&gt;LSS_Model\CLASS\3.6\sa_mesh_process\save_init_prog_variables_class.f90: save_init_prog_variables_class&lt;/font&gt;&lt;/div&gt;&lt;div&gt;&lt;font style=&quot;font-size: 9px;&quot;&gt;LSS_Model\SVS\svs1\src\runsvs_mesh.F90: runsvs_mesh_save_states_seq&lt;/font&gt;&lt;/div&gt;&lt;div&gt;&lt;font style=&quot;font-size: 9px;&quot;&gt;Routing_Model\baseflow_module\baseflow_module.f90: bflm_resume_save&lt;/font&gt;&lt;/div&gt;&lt;div&gt;&lt;font style=&quot;font-size: 9px;&quot;&gt;Routing_Model\WatRoute_old\WF_ROUTE_config.f90: WF_ROUTE_resume_save&lt;/font&gt;&lt;/div&gt;&lt;div&gt;&lt;font style=&quot;font-size: 9px;&quot;&gt;Routing_Model\RPN_watroute\sa_mesh_process\rte_module.f90: run_rte_resume_save&lt;/font&gt;&lt;/div&gt;&lt;div&gt;&lt;font style=&quot;font-size: 9px;&quot;&gt;LSS_Model\CLASS\3.6\sa_mesh_process\RUNCLASS36_config.f90: save_init_prog_variables_class_row&lt;/font&gt;&lt;/div&gt;&lt;div&gt;&lt;font style=&quot;font-size: 9px;&quot;&gt;LSS_Model\SVS\svs1\src\runsvs_mesh.F90: runsvs_mesh_save_states_seq&lt;/font&gt;&lt;/div&gt;&lt;/div&gt;" style="rounded=0;whiteSpace=wrap;html=1;align=left;" parent="1" vertex="1">
          <mxGeometry x="1.2000000000000002" y="54" width="370" height="360" as="geometry" />
        </mxCell>
        <mxCell id="MY-y1UC297sCXsPQn4J3-3" value="resumerun_save(fls, shd)" style="rounded=1;whiteSpace=wrap;html=1;fontStyle=1" parent="1" vertex="1">
          <mxGeometry x="460.08" y="80" width="191.49" height="30" as="geometry" />
        </mxCell>
        <mxCell id="MY-y1UC297sCXsPQn4J3-4" value="" style="edgeStyle=orthogonalEdgeStyle;rounded=0;orthogonalLoop=1;jettySize=auto;html=1;" parent="1" source="MY-y1UC297sCXsPQn4J3-6" target="MY-y1UC297sCXsPQn4J3-10" edge="1">
          <mxGeometry relative="1" as="geometry" />
        </mxCell>
        <mxCell id="MY-y1UC297sCXsPQn4J3-5" value="Yes" style="edgeLabel;html=1;align=center;verticalAlign=middle;resizable=0;points=[];" parent="MY-y1UC297sCXsPQn4J3-4" vertex="1" connectable="0">
          <mxGeometry x="-0.3331" y="-3" relative="1" as="geometry">
            <mxPoint as="offset" />
          </mxGeometry>
        </mxCell>
        <mxCell id="MY-y1UC297sCXsPQn4J3-6" value="Is head node &amp;amp;&lt;div&gt;&amp;nbsp;resume_options%flgs%save%state&lt;/div&gt;" style="rhombus;whiteSpace=wrap;html=1;fillColor=#F19C99;" parent="1" vertex="1">
          <mxGeometry x="434.44" y="140" width="242.77" height="70" as="geometry" />
        </mxCell>
        <mxCell id="MY-y1UC297sCXsPQn4J3-7" style="edgeStyle=orthogonalEdgeStyle;rounded=0;orthogonalLoop=1;jettySize=auto;html=1;exitX=0.5;exitY=1;exitDx=0;exitDy=0;entryX=0.5;entryY=0;entryDx=0;entryDy=0;" parent="1" source="MY-y1UC297sCXsPQn4J3-3" target="MY-y1UC297sCXsPQn4J3-6" edge="1">
          <mxGeometry relative="1" as="geometry" />
        </mxCell>
        <mxCell id="MY-y1UC297sCXsPQn4J3-8" value="" style="edgeStyle=orthogonalEdgeStyle;rounded=0;orthogonalLoop=1;jettySize=auto;html=1;" parent="1" source="MY-y1UC297sCXsPQn4J3-10" target="MY-y1UC297sCXsPQn4J3-15" edge="1">
          <mxGeometry relative="1" as="geometry">
            <mxPoint x="557.9000000000001" y="365" as="targetPoint" />
          </mxGeometry>
        </mxCell>
        <mxCell id="MY-y1UC297sCXsPQn4J3-9" value="Yes" style="edgeLabel;html=1;align=center;verticalAlign=middle;resizable=0;points=[];" parent="MY-y1UC297sCXsPQn4J3-8" vertex="1" connectable="0">
          <mxGeometry x="-0.501" y="-3" relative="1" as="geometry">
            <mxPoint as="offset" />
          </mxGeometry>
        </mxCell>
        <mxCell id="MY-y1UC297sCXsPQn4J3-10" value="Check if now is the time for the I/O operation" style="rhombus;whiteSpace=wrap;html=1;fillColor=#F19C99;" parent="1" vertex="1">
          <mxGeometry x="409.80999999999995" y="240" width="292" height="50" as="geometry" />
        </mxCell>
        <mxCell id="MY-y1UC297sCXsPQn4J3-11" value="Save the run state to file in txt format&lt;div&gt;&amp;nbsp;in&amp;nbsp;&lt;b&gt;MESH_variables.txt&lt;/b&gt;&lt;/div&gt;&lt;div&gt;e.g.&amp;nbsp;&lt;span style=&quot;background-color: initial;&quot;&gt;write(iun, &#39;(a)&#39;) &#39;!&amp;lt; BASINCELLS&#39;, etc.&lt;/span&gt;&lt;/div&gt;" style="rounded=1;whiteSpace=wrap;html=1;" parent="1" vertex="1">
          <mxGeometry x="720.0799999999999" y="310" width="210" height="60" as="geometry" />
        </mxCell>
        <mxCell id="MY-y1UC297sCXsPQn4J3-12" style="edgeStyle=orthogonalEdgeStyle;rounded=0;orthogonalLoop=1;jettySize=auto;html=1;" parent="1" source="MY-y1UC297sCXsPQn4J3-15" target="MY-y1UC297sCXsPQn4J3-19" edge="1">
          <mxGeometry relative="1" as="geometry" />
        </mxCell>
        <mxCell id="MY-y1UC297sCXsPQn4J3-13" style="edgeStyle=orthogonalEdgeStyle;rounded=0;orthogonalLoop=1;jettySize=auto;html=1;entryX=0;entryY=0.5;entryDx=0;entryDy=0;" parent="1" source="MY-y1UC297sCXsPQn4J3-15" target="MY-y1UC297sCXsPQn4J3-11" edge="1">
          <mxGeometry relative="1" as="geometry" />
        </mxCell>
        <mxCell id="MY-y1UC297sCXsPQn4J3-14" value="Yes" style="edgeLabel;html=1;align=center;verticalAlign=middle;resizable=0;points=[];" parent="MY-y1UC297sCXsPQn4J3-13" vertex="1" connectable="0">
          <mxGeometry x="-0.2381" y="4" relative="1" as="geometry">
            <mxPoint as="offset" />
          </mxGeometry>
        </mxCell>
        <mxCell id="MY-y1UC297sCXsPQn4J3-15" value="Check if the File Format is Text" style="rhombus;whiteSpace=wrap;html=1;fillColor=#F19C99;" parent="1" vertex="1">
          <mxGeometry x="452.9" y="335" width="205.82" height="50" as="geometry" />
        </mxCell>
        <mxCell id="MY-y1UC297sCXsPQn4J3-18" style="rounded=0;orthogonalLoop=1;jettySize=auto;html=1;entryX=0.5;entryY=0;entryDx=0;entryDy=0;" parent="1" source="MY-y1UC297sCXsPQn4J3-19" target="MY-y1UC297sCXsPQn4J3-28" edge="1">
          <mxGeometry relative="1" as="geometry" />
        </mxCell>
        <mxCell id="MY-y1UC297sCXsPQn4J3-19" value="Check if the File Format&lt;div&gt;&amp;nbsp;is Sequential binary&lt;/div&gt;" style="rhombus;whiteSpace=wrap;html=1;fillColor=#F19C99;" parent="1" vertex="1">
          <mxGeometry x="449.41999999999996" y="414" width="212.79" height="60" as="geometry" />
        </mxCell>
        <mxCell id="MY-y1UC297sCXsPQn4J3-20" value="&lt;br&gt;&lt;blockquote style=&quot;margin: 0 0 0 40px; border: none; padding: 0px;&quot;&gt;&lt;div&gt;&lt;span style=&quot;background-color: initial;&quot;&gt;&lt;br&gt;&lt;/span&gt;&lt;/div&gt;&lt;div&gt;&lt;br&gt;&lt;/div&gt;&lt;div&gt;&lt;br&gt;&lt;/div&gt;&lt;div&gt;&lt;br&gt;&lt;/div&gt;&lt;/blockquote&gt;" style="rounded=1;whiteSpace=wrap;html=1;align=left;" parent="1" vertex="1">
          <mxGeometry x="694" y="380" width="396" height="470" as="geometry" />
        </mxCell>
        <mxCell id="MY-y1UC297sCXsPQn4J3-21" value="&lt;div&gt;1. fname = fls%fl(mfk%f883)%fn. Append date to the default filename.&amp;nbsp;&lt;/div&gt;&lt;div&gt;2. if &#39;+STASONLY&#39; &amp;amp; +CLASSPROG not in vs%flgs%save%bin:&lt;/div&gt;&lt;ul&gt;&lt;li&gt;if&amp;nbsp;&lt;font style=&quot;font-size: 9px;&quot;&gt;(svs_mesh%PROCESS_ACTIVE .or. RUNCLASS36_flgs%PROCESS_ACTIVE)&lt;/font&gt;&lt;/li&gt;&lt;ul&gt;&lt;li&gt;&lt;font style=&quot;font-size: 12px;&quot;&gt;call save_init_prog_variables_class(fls, shd)&lt;/font&gt;&lt;/li&gt;&lt;li&gt;&lt;font style=&quot;font-size: 12px;&quot;&gt;call runsvs_mesh_save_states_seq(fls, shd)&lt;/font&gt;&lt;/li&gt;&lt;li&gt;&lt;font style=&quot;font-size: 12px;&quot;&gt;call bflm_resume_save(fls, shd)&lt;/font&gt;&lt;/li&gt;&lt;/ul&gt;&lt;li&gt;if &lt;font style=&quot;font-size: 9px;&quot;&gt;(WF_RTE_flgs%PROCESS_ACTIVE .or. rteflg%PROCESS_ACTIVE)&lt;/font&gt;&lt;/li&gt;&lt;ul&gt;&lt;li style=&quot;&quot;&gt;&lt;font style=&quot;font-size: 12px;&quot;&gt;call WF_ROUTE_resume_save(fls, shd)&lt;/font&gt;&lt;/li&gt;&lt;li style=&quot;&quot;&gt;&lt;font style=&quot;font-size: 12px;&quot;&gt;call run_rte_resume_save(fls, shd)&lt;/font&gt;&lt;/li&gt;&lt;/ul&gt;&lt;li style=&quot;&quot;&gt;&lt;font style=&quot;font-size: 12px;&quot;&gt;call run_save_basin_output_resume_save(fls, shd)&lt;/font&gt;&lt;/li&gt;&lt;li style=&quot;&quot;&gt;&lt;font style=&quot;font-size: 12px;&quot;&gt;call stats_state_save(fls)&lt;/font&gt;&lt;/li&gt;&lt;li&gt;&lt;span style=&quot;background-color: initial;&quot;&gt;Writing Zone Storage Data in zone_storage_states*.txt&lt;br&gt;&lt;/span&gt;&lt;/li&gt;&lt;/ul&gt;&lt;span style=&quot;background-color: initial;&quot;&gt;3. else if&amp;nbsp;&lt;/span&gt;&amp;nbsp;&#39;+CLASSPROG&#39; not in vs%flgs%save%bin:&lt;div&gt;&lt;ul&gt;&lt;li&gt;if &lt;font style=&quot;font-size: 9px;&quot;&gt;(svs_mesh%PROCESS_ACTIVE .or. RUNCLASS36_flgs%PROCESS_ACTIVE)&lt;/font&gt;&lt;/li&gt;&lt;ul&gt;&lt;li&gt;call save_init_prog_variables_class(fls, shd)&lt;/li&gt;&lt;li style=&quot;&quot;&gt;call runsvs_mesh_save_states_seq(fls, shd)&lt;/li&gt;&lt;li style=&quot;&quot;&gt;call bflm_resume_save(fls, shd)&lt;/li&gt;&lt;/ul&gt;&lt;li&gt;if &lt;font style=&quot;font-size: 9px;&quot;&gt;(WF_RTE_flgs%PROCESS_ACTIVE .or. rteflg%PROCESS_ACTIVE)&lt;/font&gt;&lt;/li&gt;&lt;ul&gt;&lt;li style=&quot;&quot;&gt;&lt;font size=&quot;1&quot; style=&quot;&quot;&gt;call WF_ROUTE_resume_save(fls, shd)&lt;/font&gt;&lt;/li&gt;&lt;li style=&quot;&quot;&gt;&lt;font size=&quot;1&quot; style=&quot;&quot;&gt;call run_rte_resume_save(fls, shd)&lt;/font&gt;&lt;/li&gt;&lt;/ul&gt;&lt;li&gt;Writing Zone Storage Data in zone_storage_states*.txt&lt;br&gt;&lt;/li&gt;&lt;/ul&gt;4. else&amp;nbsp;&lt;/div&gt;&lt;div&gt;&lt;div&gt;&lt;ul&gt;&lt;li&gt;call save_init_prog_variables_class_row(fls, shd)&lt;/li&gt;&lt;li&gt;call runsvs_mesh_save_states_seq(fls, shd)&lt;/li&gt;&lt;/ul&gt;5. Update filename to&amp;nbsp;&lt;b&gt;fname&lt;/b&gt; based on frequency of saving data&lt;/div&gt;&lt;/div&gt;" style="text;html=1;align=left;verticalAlign=middle;whiteSpace=wrap;rounded=0;" parent="1" vertex="1">
          <mxGeometry x="708" y="437.5" width="386" height="355" as="geometry" />
        </mxCell>
        <mxCell id="MY-y1UC297sCXsPQn4J3-22" style="edgeStyle=orthogonalEdgeStyle;rounded=0;orthogonalLoop=1;jettySize=auto;html=1;entryX=0.5;entryY=0;entryDx=0;entryDy=0;" parent="1" source="MY-y1UC297sCXsPQn4J3-23" target="MY-y1UC297sCXsPQn4J3-24" edge="1">
          <mxGeometry relative="1" as="geometry" />
        </mxCell>
        <mxCell id="MY-y1UC297sCXsPQn4J3-23" value="Save the resume date to a file named auto_resume.ini based on frequency flags" style="rounded=1;whiteSpace=wrap;html=1;" parent="1" vertex="1">
          <mxGeometry x="477.93" y="600" width="161.43" height="60" as="geometry" />
        </mxCell>
        <mxCell id="MY-y1UC297sCXsPQn4J3-24" value="end subroutine" style="whiteSpace=wrap;html=1;fillColor=#FFFFFF;rounded=1;fontStyle=1;" parent="1" vertex="1">
          <mxGeometry x="502.06999999999994" y="685" width="113.13" height="40" as="geometry" />
        </mxCell>
        <mxCell id="MY-y1UC297sCXsPQn4J3-25" style="edgeStyle=orthogonalEdgeStyle;rounded=0;orthogonalLoop=1;jettySize=auto;html=1;exitX=0;exitY=0.5;exitDx=0;exitDy=0;entryX=1;entryY=0.5;entryDx=0;entryDy=0;" parent="1" source="MY-y1UC297sCXsPQn4J3-28" target="MY-y1UC297sCXsPQn4J3-29" edge="1">
          <mxGeometry relative="1" as="geometry" />
        </mxCell>
        <mxCell id="MY-y1UC297sCXsPQn4J3-26" value="Yes" style="edgeLabel;html=1;align=center;verticalAlign=middle;resizable=0;points=[];" parent="MY-y1UC297sCXsPQn4J3-25" vertex="1" connectable="0">
          <mxGeometry x="0.1059" y="-4" relative="1" as="geometry">
            <mxPoint as="offset" />
          </mxGeometry>
        </mxCell>
        <mxCell id="MY-y1UC297sCXsPQn4J3-27" style="rounded=0;orthogonalLoop=1;jettySize=auto;html=1;exitX=0.5;exitY=1;exitDx=0;exitDy=0;" parent="1" source="MY-y1UC297sCXsPQn4J3-28" target="MY-y1UC297sCXsPQn4J3-23" edge="1">
          <mxGeometry relative="1" as="geometry" />
        </mxCell>
        <mxCell id="MY-y1UC297sCXsPQn4J3-28" value="Check if the File Format&lt;div&gt;&amp;nbsp;is NETCDF&lt;/div&gt;" style="rhombus;whiteSpace=wrap;html=1;fillColor=#F19C99;" parent="1" vertex="1">
          <mxGeometry x="473" y="500" width="196.39" height="60" as="geometry" />
        </mxCell>
        <mxCell id="MY-y1UC297sCXsPQn4J3-29" value="1. Save the run state to file in NETCDF format&lt;div&gt;&amp;nbsp;in&amp;nbsp;&lt;span style=&quot;background-color: initial;&quot;&gt;&lt;b&gt;MESH_initial_values.nc&lt;/b&gt;&lt;/span&gt;&lt;/div&gt;&lt;div&gt;&lt;ul&gt;&lt;li&gt;&lt;span style=&quot;background-color: initial;&quot;&gt;Append date to the default filename&lt;/span&gt;&lt;/li&gt;&lt;li&gt;&lt;span style=&quot;background-color: initial;&quot;&gt;call save_initial_states_nc&lt;/span&gt;&lt;/li&gt;&lt;/ul&gt;2.&amp;nbsp;Writing Zone Storage Data in&amp;nbsp;&lt;b&gt;zone_storage_states*.txt&lt;/b&gt;&lt;br&gt;&lt;/div&gt;" style="rounded=1;whiteSpace=wrap;html=1;align=left;" parent="1" vertex="1">
          <mxGeometry x="250" y="437.5" width="184" height="185" as="geometry" />
        </mxCell>
        <mxCell id="MY-y1UC297sCXsPQn4J3-30" style="edgeStyle=orthogonalEdgeStyle;rounded=0;orthogonalLoop=1;jettySize=auto;html=1;entryX=-0.001;entryY=0.234;entryDx=0;entryDy=0;entryPerimeter=0;" parent="1" source="MY-y1UC297sCXsPQn4J3-19" target="MY-y1UC297sCXsPQn4J3-20" edge="1">
          <mxGeometry relative="1" as="geometry" />
        </mxCell>
        <mxCell id="MY-y1UC297sCXsPQn4J3-31" value="Yes" style="edgeLabel;html=1;align=center;verticalAlign=middle;resizable=0;points=[];" parent="MY-y1UC297sCXsPQn4J3-30" vertex="1" connectable="0">
          <mxGeometry x="-0.1096" y="-3" relative="1" as="geometry">
            <mxPoint as="offset" />
          </mxGeometry>
        </mxCell>
      </root>
    </mxGraphModel>
  </diagram>
</mxfile>
